<svg width="409" height="51" viewBox="0 0 409 51" fill="none" xmlns="http://www.w3.org/2000/svg">
<path d="M0 24C0 10.7452 10.7452 0 24 0H385C398.255 0 409 10.7452 409 24V27C409 40.2548 398.255 51 385 51H24C10.7452 51 0 40.2548 0 27V24Z" fill="#121212"/>
<path d="M21.44 32.5H26.624C29.288 32.5 31.394 31.42 31.394 28.648C31.394 26.974 30.602 26.074 29.432 25.552C30.278 25.066 30.872 23.95 30.872 22.726C30.872 20.08 28.64 19.45 26.246 19.45H21.44V32.5ZM23.492 26.56H26.57C28.442 26.56 29.288 27.208 29.288 28.648C29.288 30.034 28.424 30.808 26.678 30.808H23.492V26.56ZM23.492 21.142H26.498C27.866 21.142 28.802 21.736 28.802 22.978C28.802 24.4 27.92 24.976 26.498 24.976H23.492V21.142ZM37.6683 31.132C36.1383 31.132 35.0403 30.034 34.8423 28.234H42.2223C42.4203 25.084 40.6743 22.636 37.6863 22.636C34.9323 22.636 32.9163 24.634 32.9163 27.64C32.9163 30.448 34.6263 32.734 37.7403 32.734C40.1883 32.734 41.6643 31.258 42.0963 29.656H40.2063C39.7923 30.574 39.0363 31.132 37.6683 31.132ZM37.6683 24.166C39.1983 24.166 40.2243 25.336 40.2783 26.758H34.8783C35.1483 24.904 36.2103 24.166 37.6683 24.166ZM48.1607 22.636C45.2987 22.636 43.4807 24.814 43.4807 27.676C43.4807 30.61 45.2267 32.734 48.0347 32.734C50.1767 32.734 52.0487 31.312 52.4447 29.278H50.5547C50.2847 30.43 49.2767 31.132 48.0707 31.132C46.7207 31.132 45.4787 30.052 45.4787 27.658C45.4787 25.3 46.7207 24.238 48.0707 24.238C49.2947 24.238 50.2847 24.994 50.4827 26.092H52.3547C52.0667 24.202 50.3747 22.636 48.1607 22.636ZM55.6213 27.694C55.6213 25.246 56.9353 24.22 58.3393 24.22C59.7793 24.22 61.0753 25.3 61.0753 27.694C61.0753 30.052 59.7793 31.15 58.3393 31.15C56.9353 31.15 55.6213 30.07 55.6213 27.694ZM58.3393 22.636C56.0533 22.636 53.6413 24.184 53.6413 27.694C53.6413 31.186 56.0533 32.734 58.3393 32.734C60.6433 32.734 63.0553 31.186 63.0553 27.694C63.0553 24.184 60.6433 22.636 58.3393 22.636ZM66.7961 27.298C66.7961 25.354 67.5161 24.202 69.0281 24.202C70.7021 24.202 70.9361 25.516 70.9361 26.902V32.5H72.8081V27.298C72.8081 25.354 73.5461 24.202 75.0401 24.202C76.7141 24.202 76.9481 25.516 76.9481 26.902V32.5H78.8201V26.398C78.8201 24.148 77.9381 22.636 75.6701 22.636C74.3921 22.636 73.2761 23.122 72.4661 24.346C72.0341 23.266 71.1701 22.636 69.6581 22.636C68.2721 22.636 67.3541 23.266 66.7961 24.22V22.816H64.9241V32.5H66.7961V27.298ZM85.2698 31.132C83.7398 31.132 82.6418 30.034 82.4438 28.234H89.8238C90.0218 25.084 88.2758 22.636 85.2878 22.636C82.5338 22.636 80.5178 24.634 80.5178 27.64C80.5178 30.448 82.2278 32.734 85.3418 32.734C87.7898 32.734 89.2658 31.258 89.6978 29.656H87.8078C87.3938 30.574 86.6378 31.132 85.2698 31.132ZM85.2698 24.166C86.7998 24.166 87.8258 25.336 87.8798 26.758H82.4798C82.7498 24.904 83.8118 24.166 85.2698 24.166ZM101.927 28.594C101.927 30.52 100.703 31.294 99.1731 31.294C98.0211 31.294 97.3371 30.736 97.3371 29.854C97.3371 28.612 98.9211 28.18 101.927 27.892V28.594ZM98.7591 32.734C100.343 32.734 101.423 32.212 101.999 31.222C102.053 31.852 102.089 32.122 102.161 32.5H103.961C103.781 31.636 103.691 30.466 103.691 29.008C103.691 28.594 103.727 26.92 103.727 26.686C103.745 23.788 102.323 22.582 99.8211 22.582C97.6071 22.582 95.8971 23.806 95.7531 25.876H97.6431C97.7151 24.67 98.4531 24.022 99.7491 24.022C100.937 24.022 101.837 24.598 101.837 26.308V26.506C98.0931 26.884 95.3031 27.532 95.3031 29.89C95.3031 31.654 96.7971 32.734 98.7591 32.734ZM115.19 26.776C116.576 27.064 117.89 27.604 117.89 28.954C117.89 30.232 116.72 31.024 115.01 31.024C113.156 31.024 111.968 30.124 111.59 28.324H109.574C109.862 31.06 111.932 32.734 114.938 32.734C117.458 32.734 119.96 31.384 119.96 28.792C119.96 26.146 117.674 25.372 115.586 24.94L114.038 24.616C112.904 24.382 112.058 23.824 112.058 22.744C112.058 21.376 113.696 20.926 114.65 20.926C115.892 20.926 117.296 21.412 117.728 22.942H119.708C119.186 20.314 117.152 19.216 114.74 19.216C112.526 19.216 109.97 20.368 109.97 22.834C109.97 25.03 111.734 26.074 113.588 26.452L115.19 26.776ZM127.978 28.594C127.978 30.52 126.754 31.294 125.224 31.294C124.072 31.294 123.388 30.736 123.388 29.854C123.388 28.612 124.972 28.18 127.978 27.892V28.594ZM124.81 32.734C126.394 32.734 127.474 32.212 128.05 31.222C128.104 31.852 128.14 32.122 128.212 32.5H130.012C129.832 31.636 129.742 30.466 129.742 29.008C129.742 28.594 129.778 26.92 129.778 26.686C129.796 23.788 128.374 22.582 125.872 22.582C123.658 22.582 121.948 23.806 121.804 25.876H123.694C123.766 24.67 124.504 24.022 125.8 24.022C126.988 24.022 127.888 24.598 127.888 26.308V26.506C124.144 26.884 121.354 27.532 121.354 29.89C121.354 31.654 122.848 32.734 124.81 32.734ZM138.534 24.238C137.94 23.23 136.986 22.636 135.546 22.636C133.296 22.636 131.424 24.4 131.424 27.478C131.424 30.574 133.296 32.338 135.546 32.338C136.986 32.338 137.94 31.744 138.534 30.736V31.762C138.534 32.77 138.336 33.256 137.958 33.67C137.544 34.138 136.896 34.372 136.014 34.372C134.592 34.372 134.052 33.85 133.854 32.968H131.928C132.234 35.002 133.8 35.938 135.978 35.938C137.472 35.938 138.624 35.542 139.362 34.768C140.028 34.102 140.406 33.148 140.406 31.366V22.816H138.534V24.238ZM138.606 27.478C138.606 29.782 137.418 30.808 135.978 30.808C134.412 30.808 133.422 29.584 133.422 27.478C133.422 25.39 134.412 24.184 135.978 24.184C137.418 24.184 138.606 25.174 138.606 27.478ZM148.949 28.594C148.949 30.52 147.725 31.294 146.195 31.294C145.043 31.294 144.359 30.736 144.359 29.854C144.359 28.612 145.943 28.18 148.949 27.892V28.594ZM145.781 32.734C147.365 32.734 148.445 32.212 149.021 31.222C149.075 31.852 149.111 32.122 149.183 32.5H150.983C150.803 31.636 150.713 30.466 150.713 29.008C150.713 28.594 150.749 26.92 150.749 26.686C150.767 23.788 149.345 22.582 146.843 22.582C144.629 22.582 142.919 23.806 142.775 25.876H144.665C144.737 24.67 145.475 24.022 146.771 24.022C147.959 24.022 148.859 24.598 148.859 26.308V26.506C145.115 26.884 142.325 27.532 142.325 29.89C142.325 31.654 143.819 32.734 145.781 32.734ZM163.814 24.238C163.22 23.23 162.23 22.636 160.79 22.636C158.54 22.636 156.614 24.508 156.614 27.676C156.614 30.844 158.54 32.734 160.79 32.734C162.23 32.734 163.22 32.14 163.814 31.132V32.5H165.686V19.45H163.814V24.238ZM163.886 27.676C163.886 30.07 162.662 31.168 161.222 31.168C159.656 31.168 158.612 29.854 158.612 27.676C158.612 25.498 159.656 24.202 161.222 24.202C162.662 24.202 163.886 25.282 163.886 27.676ZM172.299 31.132C170.769 31.132 169.671 30.034 169.473 28.234H176.853C177.051 25.084 175.305 22.636 172.317 22.636C169.563 22.636 167.547 24.634 167.547 27.64C167.547 30.448 169.257 32.734 172.371 32.734C174.819 32.734 176.295 31.258 176.727 29.656H174.837C174.423 30.574 173.667 31.132 172.299 31.132ZM172.299 24.166C173.829 24.166 174.855 25.336 174.909 26.758H169.509C169.779 24.904 170.841 24.166 172.299 24.166ZM179.412 22.816H177.342L180.942 32.5H182.652L186.234 22.816H184.29L181.86 29.998L179.412 22.816ZM191.407 31.132C189.877 31.132 188.779 30.034 188.581 28.234H195.961C196.159 25.084 194.413 22.636 191.425 22.636C188.671 22.636 186.655 24.634 186.655 27.64C186.655 30.448 188.365 32.734 191.479 32.734C193.927 32.734 195.403 31.258 195.835 29.656H193.945C193.531 30.574 192.775 31.132 191.407 31.132ZM191.407 24.166C192.937 24.166 193.963 25.336 194.017 26.758H188.617C188.887 24.904 189.949 24.166 191.407 24.166ZM199.669 19.45H197.797V32.5H199.669V19.45ZM203.524 27.694C203.524 25.246 204.838 24.22 206.242 24.22C207.682 24.22 208.978 25.3 208.978 27.694C208.978 30.052 207.682 31.15 206.242 31.15C204.838 31.15 203.524 30.07 203.524 27.694ZM206.242 22.636C203.956 22.636 201.544 24.184 201.544 27.694C201.544 31.186 203.956 32.734 206.242 32.734C208.546 32.734 210.958 31.186 210.958 27.694C210.958 24.184 208.546 22.636 206.242 22.636ZM212.826 22.816V35.65H214.698V31.132C215.292 32.14 216.282 32.734 217.722 32.734C219.972 32.734 221.898 30.844 221.898 27.676C221.898 24.508 219.972 22.636 217.722 22.636C216.282 22.636 215.292 23.23 214.698 24.238V22.816H212.826ZM214.626 27.676C214.626 25.282 215.85 24.202 217.29 24.202C218.856 24.202 219.9 25.498 219.9 27.676C219.9 29.854 218.856 31.168 217.29 31.168C215.85 31.168 214.626 30.07 214.626 27.676ZM227.987 31.132C226.457 31.132 225.359 30.034 225.161 28.234H232.541C232.739 25.084 230.993 22.636 228.005 22.636C225.251 22.636 223.235 24.634 223.235 27.64C223.235 30.448 224.945 32.734 228.059 32.734C230.507 32.734 231.983 31.258 232.415 29.656H230.525C230.111 30.574 229.355 31.132 227.987 31.132ZM227.987 24.166C229.517 24.166 230.543 25.336 230.597 26.758H225.197C225.467 24.904 226.529 24.166 227.987 24.166ZM239.417 22.798C239.255 22.78 239.057 22.78 238.895 22.78C237.671 22.798 236.717 23.428 236.213 24.526V22.816H234.377V32.5H236.249V27.424C236.249 25.39 237.005 24.688 238.445 24.688C238.751 24.688 239.075 24.706 239.417 24.742V22.798Z" fill="white"/>
<path d="M387.731 25.484L382.169 19.886L381.017 21.074L384.599 24.62H374.267V26.366H384.563L381.017 29.894L382.169 31.082L387.731 25.484Z" fill="#99FB66"/>
</svg>
